# xmcd
#
# Track frame offsets:
#	150
#	13961
#	22741
#	37839
#	56087
#	65586
#	79337
#	91689
#	105182
#	115806
#	132542
#	149419
#	159992
#	173201
#	182934
#	201456
#	216935
#	228859
# Disc length: 3152 seconds
# Revision: 2
# Processed by: cddbd v1.5.2PL0 Copyright (c) Steve Scherf et al.
#
# Submitted via: libkcddb 0.10
#
DISCID=f50c4e12
DTITLE=Little People - Songs from the Farm
DYEAR=1900
DGENRE=Unknown
TTITLE0=A Day at the Farm
TTITLE1=The Mulberry Bush
TTITLE2=Three Little Fishies
TTITLE3=Had a Little Rooster
TTITLE4=The Farmer in the Dell
TTITLE5=Turkey in the Straw
TTITLE6=Mary Had a Little Lamb
TTITLE7=Mairzy Doats
TTITLE8=Baa, Baa, Black Sheep
TTITLE9=The Barnyard Song
TTITLE10=There's a Hole in the Bucket
TTITLE11=Chick-Chick-Chick-Chick-Chicken
TTITLE12=Oats, Peas, Beans and Barley Grow
TTITLE13=Six Little Ducks
TTITLE14=Farmer Jed Has a Farm
TTITLE15=Be Kind to Your Web-Footed Friends
TTITLE16=B-I-N-G-O
TTITLE17=A Day at the Farm (Reprise)
EXTD=Fisher-Price 22970
EXTT0=
EXTT1=
EXTT2=
EXTT3=
EXTT4=
EXTT5=
EXTT6=
EXTT7=
EXTT8=
EXTT9=
EXTT10=
EXTT11=
EXTT12=
EXTT13=
EXTT14=
EXTT15=
EXTT16=
EXTT17=
PLAYORDER=
